# xmcd
#
# Track frame offsets: 
#        183
#        30913
#        54953
#        88683
#        111370
#        124438
#        148245
#
# Disc length: 2174 seconds
#
# Revision: 4
# Processed by: cddbd v1.5.2PL0 Copyright (c) Steve Scherf et al.
# Submitted via: ExactAudioCopyFreeDBPlugin 1.0
#
DISCID=5e087c07
DTITLE=Curtis Mayfield - Back to the World
DYEAR=1973
DGENRE=Soul
TTITLE0=Back to the World
TTITLE1=Future Shock
TTITLE2=Right On for the Darkness
TTITLE3=Future Song (Love a Good Woman, Love a Good Man)
TTITLE4=If I Were Only a Child Again
TTITLE5=Can't Say Nothin'
TTITLE6=Keep on Trippin'
EXTD=YEAR: 1973
EXTT0=
EXTT1=
EXTT2=
EXTT3=
EXTT4=
EXTT5=
EXTT6=
PLAYORDER=
